<svg id="Calque_3" data-name="Calque 3" xmlns="http://www.w3.org/2000/svg" viewBox="0 0 257.49 354.95"><defs><style>.cls-1{fill:#ebda47;}.cls-2,.cls-4{fill:none;stroke-miterlimit:10;}.cls-2{stroke:#000;}.cls-3{fill:#ebbfd4;}.cls-4{stroke:#fff;}</style></defs><g id="Bocal"><path class="cls-1" d="M867.79,282.79a94.07,94.07,0,0,0-25.89-11.27c-3.76-1-29.06-7.44-50,.35-32.4,12-48.65,55.74-46.81,90.45,1.93,36.41,24.59,78.53,65.21,90.62,36.92,11,69.47-8.56,72.17-10.24,5.69-3.54,16.79-10.61,25-24.22,14.06-23.36,9-48.52,6-63.44C911.82,347,903.5,305.44,867.79,282.79Z" transform="translate(-659.32 -101.32)"/><path class="cls-2" d="M843.27,212.45V417.29a12,12,0,0,1-12,12h-128a12,12,0,0,1-12-12V212.45" transform="translate(-659.32 -101.32)"/><ellipse cx="107.47" cy="109.04" rx="78.38" ry="16.24"/><rect x="28.89" y="98.12" width="156.76" height="12.35"/><ellipse class="cls-3" cx="107.27" cy="98.12" rx="78.38" ry="16.24"/><path class="cls-2" d="M750,422.47H712a12,12,0,0,1-12-12V345.62" transform="translate(-659.32 -101.32)"/><line class="cls-2" x1="40.65" y1="225.43" x2="40.65" y2="237.35"/><line class="cls-4" x1="179.94" y1="106.22" x2="179.94" y2="113.12"/><line class="cls-4" x1="174.79" y1="108.59" x2="174.79" y2="115.49"/><line class="cls-4" x1="169.29" y1="110.91" x2="169.29" y2="117.82"/><path class="cls-2" d="M683.89,101.82c-.72.05,2.81,15.42-4.36,23.43-4.87,5.46-13.34,6-20.16,5.45,6.63-.73,15.39-.53,21.25,4.91,9.29,8.61,7.42,26.76,7.51,26.75s-4-14.49,2.3-24c4.3-6.48,12.19-8.82,18-9.81-5.18.3-12.45-.16-17.43-4.9C683.18,116.21,684.58,101.78,683.89,101.82Z" transform="translate(-659.32 -101.32)"/><path class="cls-2" d="M722.36,132.09c-.5,0,2,10.8-3.05,16.41-3.42,3.82-9.35,4.19-14.12,3.82,4.64-.52,10.78-.38,14.88,3.43,6.5,6,5.19,18.74,5.26,18.74s-2.82-10.15,1.61-16.83c3-4.54,8.53-6.18,12.59-6.87-3.63.21-8.72-.12-12.21-3.43C721.86,142.17,722.84,132.06,722.36,132.09Z" transform="translate(-659.32 -101.32)"/></g></svg>