<svg id="Calque_3" data-name="Calque 3" xmlns="http://www.w3.org/2000/svg" viewBox="0 0 384.48 461.86"><defs><style>.cls-1{fill:#ebbfd4;}.cls-2,.cls-4{fill:#fff;}.cls-3{fill:none;}.cls-3,.cls-4{stroke:#000;stroke-miterlimit:10;}</style></defs><g id="Commande"><path d="M1579.88,646.11c.78,0,1.56-.1,2.34-.17-.77.08-1.54.15-2.3.19Z" transform="translate(-1383.34 -268.82)"/><path d="M1494.54,502.76c2.87,2.92,46.37,47.19,93.07,94.75a52.14,52.14,0,0,1-12.37,3.59,48.11,48.11,0,0,1-7.59.6c-24.14,0-40.09-18.23-49.59-15.24a6.77,6.77,0,0,0-2.15,1.14c-5,3.89-3.73,13-3.44,15.14.11.78.25,1.56.43,2.34l-12.59-7.72-.65-.39c-.77-.48-1.53-1-2.3-1.41l-11.57-7.09-2.07-1.27-.22-.13h0l-4.83-2.95-.06-.05-1.8-1.1h0c-1.85-1.14-3.68-2.27-5.53-3.39h0l-6.69-4.1s0,0,0,0l-4-2.43L1457.2,571l-.08-.05-19.86-12.17-34-20.81c.23-.39.46-.78.67-1.18h0c1.86-3.29,3.4-6.59,4.61-9.06a6.72,6.72,0,0,1,1.05-1.64,6.55,6.55,0,0,1,1.89-1.47l77.4-22.45a5.82,5.82,0,0,1,3.51-.33A5.7,5.7,0,0,1,1494.54,502.76Z" transform="translate(-1383.34 -268.82)"/><path d="M1619.12,629.6a75.58,75.58,0,0,1-8.7,6.47c-.55.35-1.11.69-1.67,1-.82.48-1.65.95-2.5,1.4-.48.25-1,.5-1.45.74.67-.35,1.32-.71,2-1.07l1.52-.88c.7-.42,1.38-.85,2.06-1.29a74.57,74.57,0,0,0,8.64-6.53A.86.86,0,0,0,1619.12,629.6Z" transform="translate(-1383.34 -268.82)"/><path d="M1645.7,656.67l7.94,8.08c-.66,1-1.39,2-2.19,3a39,39,0,0,1-4.39,4.69,46.92,46.92,0,0,1-11.73,7.59L1617.19,669l.14,0a113.25,113.25,0,0,0,19.05-7.06A86.36,86.36,0,0,0,1645.7,656.67Z" transform="translate(-1383.34 -268.82)"/><path d="M1682.64,698.3c-.93,2.5-1.87,5-2.81,7.51-.14.4-.29.8-.44,1.2v0a0,0,0,0,1,0,0h0l-17.29-10.6q2.89-1.58,5.62-3.44a71.13,71.13,0,0,0,7.73-6.09l4.84,4.94a6.86,6.86,0,0,1,2.26,3.46A6.77,6.77,0,0,1,1682.64,698.3Z" transform="translate(-1383.34 -268.82)"/><path class="cls-1" d="M1532.81,631.74c12.82,9.28,30.07,15.31,47.07,14.37.78,0,1.56-.1,2.34-.17-.77.08-1.54.15-2.3.19-17,1.17-30.92-4.54-39.51-9.43A71.43,71.43,0,0,1,1532.81,631.74Z" transform="translate(-1383.34 -268.82)"/><path class="cls-1" d="M1610.42,636.07a61.4,61.4,0,0,1-6,3.37l.4-.21c.67-.35,1.32-.71,2-1.07l1.52-.88c.7-.42,1.38-.85,2.06-1.29Z" transform="translate(-1383.34 -268.82)"/><path class="cls-1" d="M1679.83,705.81a.88.88,0,0,1,0,.23,1.76,1.76,0,0,1-.44,1v0l0,0a2.36,2.36,0,0,1-1.62.77l-78.19,22.68a5.87,5.87,0,0,1-2.09.14,5.94,5.94,0,0,1-2.57-.95L1403.75,540.37a3.08,3.08,0,0,1-.46-2.44,2.9,2.9,0,0,1,.67-1.18h0a3.31,3.31,0,0,1,2.09-1c41.84-12.27,72.42-21.12,75.38-21.85a8.17,8.17,0,0,1,4.07-.07,9,9,0,0,1,3,1.53c1.65,1.32,42.51,41.83,86.74,85.75a48.11,48.11,0,0,1-7.59.6c-24.14,0-40.09-18.23-49.59-15.24a6.77,6.77,0,0,0-2.15,1.14c-5,3.89-3.73,13-3.44,15.14.11.78.25,1.56.43,2.34,2.12,9.44,9.25,18.73,19.13,26.08h0c2.09,7,8.22,23.78,24.61,34.36,22.12,14.27,47.46,7.07,60.55,3.44l.14,0a113.25,113.25,0,0,0,19.05-7.06q5.53,5.52,10.68,10.62a46.92,46.92,0,0,1-11.73,7.59c-.55.27-1.08.51-1.58.74-19.23,8.86-34.55,4.17-35.87,8.22a.36.36,0,0,0,0,.11c-1,3.77,10.3,11.14,21.86,14.05,16.6,4.18,30.93-1.56,35.92-3.64a64.71,64.71,0,0,0,6.44-3.11q2.89-1.58,5.62-3.44l11.6,11.55A2.06,2.06,0,0,1,1679.83,705.81Z" transform="translate(-1383.34 -268.82)"/><path class="cls-2" d="M1456.28,542.19a26.74,26.74,0,0,1,11.13-2.73,13.81,13.81,0,0,1,10.65,4c10.94,10.79,21.32,22.07,31.68,33.4,4.48,5,11,12.18,15.27,17.22-4-4.15-11.91-12.5-15.84-16.69-9.33-9.86-22.29-23.82-31.6-33.41a13.32,13.32,0,0,0-10.16-4.1,27.62,27.62,0,0,0-11.13,2.32Z" transform="translate(-1383.34 -268.82)"/><path class="cls-3" d="M1709.91,379.7l-52.66,108c-.84-2.63-6.87-20.65-23.64-26.27-14.37-4.81-27.28,2.63-36,7.63-24.3,14-33.57,38.73-36.65,48.63-8,12.4-6.92,25.81-.11,31.4,5.19,4.27,14.09,4.32,20.22.76,10.26-6,6.65-19.1,20-30.31,3-2.49,7-5.78,12-5.32,8.91.8,14,12.77,14.9,15,7.72,19.31-8.23,41.07-10.58,44.3-1.68,2.3-21.06,28.17-49.83,28.15-26.07,0-42.59-21.26-51.74-14.1-5,3.89-3.73,13-3.44,15.14,3.16,23.13,37.29,46.24,69.75,43.2,38.24-3.57,57.17-41.84,58.4-44.44-.7,1.61-18.43,40.3-58.4,44.44-26.23,2.72-45.46-11.15-50.19-14.78,2.08,7,8.21,23.79,24.61,34.37,22.2,14.32,47.64,7,60.69,3.4,16.23-4.49,32.1-12.16,43.09-24.91a43.24,43.24,0,0,1-9,23.78c-6,7.51-13.08,10.89-17.7,13-19.41,8.94-34.83,4.08-35.91,8.33-1,3.77,10.3,11.14,21.86,14.05,16.6,4.18,30.93-1.56,35.92-3.64,23.18-9.66,39.94-32.3,43.2-56.22a66.24,66.24,0,0,0,0-17.7,93.55,93.55,0,0,0,2-83.77l66.53-137.37" transform="translate(-1383.34 -268.82)"/><path class="cls-4" d="M1561,517.7a21.22,21.22,0,0,1,7.23,14.58c.51,9.91-6.5,16.11-7.34,16.82" transform="translate(-1383.34 -268.82)"/><path class="cls-4" d="M1514.94,589.78a81.15,81.15,0,0,1,13.45,12.3c5.82,6.7,9.44,10.87,8.88,16.18-.57,5.51-5.32,9.22-7.52,10.71" transform="translate(-1383.34 -268.82)"/><path class="cls-3" d="M1597.88,689c2,.62,5.18,1.54,9.12,2.51,5.37,1.31,6.89,1.4,8.89,2.5,2.23,1.23,5.2,3.79,7.29,9.8" transform="translate(-1383.34 -268.82)"/><path class="cls-3" d="M1536.16,641.54a6.15,6.15,0,0,0,2.84-1.86,6.25,6.25,0,0,0,1.42-3" transform="translate(-1383.34 -268.82)"/><ellipse class="cls-2" cx="1471.9" cy="567.43" rx="12.3" ry="18.17" transform="translate(-1358.3 927.15) rotate(-44.56)"/><ellipse class="cls-1" cx="1470.59" cy="568.71" rx="12.3" ry="18.17" transform="translate(-1359.58 926.59) rotate(-44.56)"/><ellipse cx="1470.59" cy="568.71" rx="9.05" ry="13.37" transform="translate(-1359.58 926.59) rotate(-44.56)"/><path d="M1483.31,581.72c-2.85,3.08-7.59,3.41-11.46,2.33a24.71,24.71,0,0,1-16.55-16.81c-1-3.87-.62-8.62,2.51-11.42-2.75,3-2.91,7.47-1.77,11.22,2.57,9.91,17.52,22.27,27.27,14.68Z" transform="translate(-1383.34 -268.82)"/><path class="cls-2" d="M1461.33,562.41a9.27,9.27,0,0,0-.1,2.37,9.44,9.44,0,0,0,1.44,4.21Z" transform="translate(-1383.34 -268.82)"/><ellipse class="cls-2" cx="1491.79" cy="592.99" rx="6.84" ry="10.11" transform="translate(-1370.52 948.45) rotate(-44.56)"/><ellipse class="cls-1" cx="1491.06" cy="593.71" rx="6.84" ry="10.11" transform="translate(-1371.23 948.14) rotate(-44.56)"/><ellipse cx="1491.06" cy="593.71" rx="5.03" ry="7.44" transform="translate(-1371.23 948.14) rotate(-44.56)"/><path d="M1498.13,600.94c-6.12,5.89-17.5-4.15-15.86-11.47a5.17,5.17,0,0,1,1.68-2.93,5.33,5.33,0,0,0-1.2,3c-.61,6.69,9,15.81,15.38,11.4Z" transform="translate(-1383.34 -268.82)"/><path d="M1444.3,548.67c-7.67,1.82-9,10.45-3.9,15.79,4.59,5,9.2,9.95,13.75,15,6.84,7.48,20.52,22.62,27.27,30.18a24.08,24.08,0,0,0,5.82,6.3c7,5.34,16.77,5.5,24.53,1.79-7.73,4.12-17.78,4.12-25-1.21a24,24,0,0,1-6-6.31c-6.84-7.48-20.53-22.6-27.3-30.15-4.54-5-9-10.1-13.53-15.18-5.16-5.51-3.66-14.65,4.34-16.19Z" transform="translate(-1383.34 -268.82)"/><path class="cls-3" d="M1389.94,386.76c-2.8-1.8-3.77-5.37-4.52-8.61-.88-3.78-1.76-7.63-1.55-11.51s1.68-7.86,4.74-10.26c5.22-4.1,13.84-1.69,17,4.16s1,13.68-4.1,17.93c8.23-4.08,18.78.24,24.14,7.7,4,5.57,5.71,13.1,3.16,19.47-1.58,3.94-4.6,7.14-7.9,9.81a51.41,51.41,0,0,1-30.43,11.41,2.75,2.75,0,0,1-2.47-.77c-1.13-1.62,1.6-3.12,3.57-3.23" transform="translate(-1383.34 -268.82)"/><path class="cls-3" d="M1431.42,378.43q3.3,16.15,5.49,32.52" transform="translate(-1383.34 -268.82)"/><path class="cls-3" d="M1429.27,367.32l1.43.73" transform="translate(-1383.34 -268.82)"/><path class="cls-3" d="M1445.16,382.75a406.32,406.32,0,0,1,8.45,54.62l-1.93-36.48c-.22-4.08-.42-8.3,1-12.13s4.92-7.2,9-7.15c3.78.05,7.1,3.12,8.16,6.75a14.31,14.31,0,0,1-1.75,10.89A20.48,20.48,0,0,1,1451,409.33" transform="translate(-1383.34 -268.82)"/><path class="cls-3" d="M1491.62,442.26c-1.77-1.14-2.38-3.38-2.85-5.43a25.92,25.92,0,0,1-1-7.25,8.76,8.76,0,0,1,3-6.47c3.29-2.59,8.73-1.07,10.7,2.62s.63,8.62-2.58,11.31c5.18-2.58,11.83.14,15.21,4.85,2.53,3.51,3.6,8.26,2,12.27a16,16,0,0,1-5,6.19,32.51,32.51,0,0,1-19.19,7.2,1.77,1.77,0,0,1-1.56-.49c-.71-1,1-2,2.26-2" transform="translate(-1383.34 -268.82)"/><path class="cls-3" d="M1517.77,437q2.09,10.19,3.46,20.5" transform="translate(-1383.34 -268.82)"/><path class="cls-3" d="M1526.43,439.74a254.81,254.81,0,0,1,5.33,34.43l-1.22-23c-.13-2.57-.26-5.23.64-7.65s3.1-4.54,5.68-4.5a5.77,5.77,0,0,1,5.14,4.25,9.06,9.06,0,0,1-1.1,6.87,12.92,12.92,0,0,1-10.78,6.35" transform="translate(-1383.34 -268.82)"/><path class="cls-3" d="M1516.6,425.45l2.34.73" transform="translate(-1383.34 -268.82)"/><path class="cls-3" d="M1449,289.76c-1.76-1.13-2.37-3.38-2.85-5.42a26,26,0,0,1-1-7.26,8.75,8.75,0,0,1,3-6.47c3.29-2.59,8.73-1.07,10.7,2.62s.63,8.63-2.58,11.31c5.19-2.58,11.84.15,15.22,4.85,2.52,3.51,3.6,8.26,2,12.28a15.8,15.8,0,0,1-5,6.18,32.41,32.41,0,0,1-19.18,7.2,1.77,1.77,0,0,1-1.57-.49c-.71-1,1-2,2.26-2" transform="translate(-1383.34 -268.82)"/><path class="cls-3" d="M1475.16,284.51q2.07,10.19,3.45,20.51" transform="translate(-1383.34 -268.82)"/><path class="cls-3" d="M1483.81,287.24a253.48,253.48,0,0,1,5.33,34.43l-1.21-23c-.14-2.57-.26-5.23.63-7.64s3.11-4.54,5.68-4.51a5.76,5.76,0,0,1,5.14,4.25,9.06,9.06,0,0,1-1.1,6.87A12.9,12.9,0,0,1,1487.5,304" transform="translate(-1383.34 -268.82)"/><path class="cls-3" d="M1474,273l2.33.73" transform="translate(-1383.34 -268.82)"/></g></svg>