<svg xmlns="http://www.w3.org/2000/svg" width="209.902" height="59.168" viewBox="0 0 209.902 59.168"><g transform="translate(0 0)"><g transform="translate(0 0)"><path d="M845.344,256.432c9.121-1.166,15.939,4.617,15.939,16.032,0,10.082-5.195,17.348-17.478,17.348-23.867,0-24.725-23.839-24.725-36.113,0-14.7,7.331-21.339,18.159-21.339,8.273,0,16.713,6.883,16.713,13.831,0,6.724-4.859,8.842-8.693,9.933Zm-11.938-4.141c-.168,0-.261.233-.261.625,0,1.1,1.8,2.35,4.01,2.658C834.516,254.791,833.928,252.291,833.406,252.291Zm2.64,9.383c-.252,0-.336.317-.336.783,0,1.483,2.472,3.208,5.6,3.591C837.584,264.957,836.819,261.674,836.045,261.674Zm5.6-8.525c0-1.324-1.865-3.124-3.665-3.124a2.052,2.052,0,0,0-2.22,1.725,3.348,3.348,0,0,0,3.5,2.966c1.744,0,2.425-.783,2.425-1.567Zm4.859-14.065c0-1.8-4.178-3.731-9.467-4.225,6.221,1.334,7.461,5.158,8.953,5.158.373,0,.55-.392.55-.933Zm-2.3,23.447c0-1.324-1.865-3.124-3.665-3.124a2.052,2.052,0,0,0-2.22,1.716,3.358,3.358,0,0,0,3.5,2.975c1.744,0,2.425-.783,2.425-1.567Zm10.828,1.959c.336,0,.513-.476.513-1.1,0-2.108-3.843-4.533-8.786-5.074,5.829,1.557,7.032,6.174,8.31,6.174Z" transform="translate(-819.08 -230.644)"/><path d="M860.759,258.817c0-5.792-.765-18.14,8.7-18.14,11.08,0,15.258,21.265,15.258,28.614,0,9.924-2.9,16.489-9.205,17.348C863.576,286.638,860.759,266.94,860.759,258.817Zm2.649-24.781c0-2.658,2.042-3.516,3.731-3.516,2.9,0,6.818,2.182,6.818,5.391,0,2.341-2.723,3.731-5.111,3.731a5.782,5.782,0,0,1-5.437-5.605Zm8.525,0c0-.933-2.22-2.033-5.036-2.266,3.33.7,4.01,2.658,4.775,2.658.261,0,.261-.159.261-.392Zm3.152,12.973c0-1.716-2.8-3.675-6.529-4.141,4.262,1.324,5.2,5,6.23,5,.13,0,.3-.392.3-.858Z" transform="translate(-821.885 -230.52)"/><path d="M884,259.58c0-8.394,5.885-18.84,15.771-18.84,15.52,0,23.363,13.057,23.363,24.156,0,6.333-2.733,22.048-17.049,22.048C890.631,286.944,884,273.8,884,259.58Zm14.326,5.083c-.345,0-.345.308-.345.783,0,1.483,2.388,3.124,5.372,3.516-3.6-1.017-4.365-4.3-5.046-4.3Zm14.41-15.557c0-2.425-6.053-5.242-13.99-5.866,9.383,1.8,11.005,7.116,13.216,7.116.494,0,.755-.466.755-1.25Zm-6.995,15.949a3.325,3.325,0,0,0-3.068-2.658c-.849,0-1.865.466-1.865,1.483a2.8,2.8,0,0,0,2.985,2.5c1.417,0,1.931-.625,1.931-1.324Z" transform="translate(-823.452 -231.208)"/><path d="M948.724,256.432c9.121-1.166,15.939,4.617,15.939,16.032,0,10.082-5.2,17.348-17.478,17.348-23.867,0-24.725-23.839-24.725-36.113,0-14.7,7.331-21.339,18.159-21.339,8.273,0,16.713,6.883,16.713,13.831,0,6.724-4.859,8.842-8.693,9.933Zm-11.938-4.141c-.168,0-.261.233-.261.625,0,1.1,1.791,2.35,4.01,2.658C937.886,254.791,937.3,252.291,936.786,252.291Zm2.64,9.383c-.252,0-.336.317-.336.783,0,1.483,2.472,3.208,5.6,3.591C940.964,264.957,940.19,261.674,939.425,261.674Zm5.6-8.525c0-1.324-1.865-3.124-3.675-3.124a2.043,2.043,0,0,0-2.21,1.725,3.348,3.348,0,0,0,3.5,2.966c1.781,0,2.425-.783,2.425-1.567Zm4.859-14.065c0-1.8-4.178-3.731-9.467-4.225,6.221,1.334,7.461,5.158,8.953,5.158.373,0,.55-.392.55-.933Zm-2.3,23.447c0-1.324-1.865-3.124-3.665-3.124a2.052,2.052,0,0,0-2.22,1.716,3.348,3.348,0,0,0,3.5,2.975c1.744,0,2.425-.783,2.425-1.567ZM958.4,264.49c.336,0,.513-.476.513-1.1,0-2.108-3.843-4.533-8.786-5.074,5.838,1.557,7.032,6.174,8.273,6.174Z" transform="translate(-826.041 -230.644)"/><path d="M964.14,259.58c0-8.394,5.885-18.84,15.771-18.84,15.52,0,23.363,13.057,23.363,24.156,0,6.333-2.733,22.048-17.049,22.048C970.79,286.944,964.14,273.8,964.14,259.58Zm14.326,5.083c-.345,0-.345.308-.345.783,0,1.483,2.388,3.124,5.372,3.516C979.911,267.946,979.146,264.663,978.466,264.663Zm14.456-15.557c0-2.425-6.053-5.242-13.99-5.866,9.327,1.8,11,7.116,13.207,7.116C992.614,250.356,992.922,249.889,992.922,249.106Zm-6.995,15.949a3.316,3.316,0,0,0-3.068-2.658c-.849,0-1.865.466-1.865,1.483a2.8,2.8,0,0,0,2.984,2.5c1.39,0,1.9-.625,1.9-1.324Z" transform="translate(-828.848 -231.208)"/><path d="M1023.367,277.675c-.261,3.731-3.33,9.224-8.954,9.224-7.592,0-11-7.116-11.192-12.591-.336-7.657,4.272-10.866,8.786-11.024-5.708-.933-10.912-5.316-11.257-14.148-.168-5.465,3.329-8.049,7.247-8.049,4.953,0,8.1,5.391,9.812,11.1h.336c-.681-2.033-.513-3.982-.6-5.941-.168-2.966,2.136-6.174,6.529-6.174,7.844,0,13.729,4.663,13.729,11.332,0,6.1-4.178,9.224-8.021,10.716v.27c6.529.933,11.257,5.158,11.425,13.831.177,5.708-3.4,9.075-7.75,9.075s-8.953-2.033-9.9-7.583ZM1012.454,246.4c-.084-1.567-1.968-3.283-4.607-3.731,3.152,1.091,3.665,4.449,4.346,4.449.1-.019.28-.252.28-.718Zm20.286-.709c-.084-1.632-2.891-3.516-6.734-3.982,4.523,1.175,5.372,4.766,6.314,4.766.27,0,.438-.233.438-.783Zm2.984,22.44c.177,0,.345-.317.261-.625,0-1.483-2.388-3.05-5.6-3.358,3.74.933,4.5,3.982,5.353,3.982Z" transform="translate(-831.313 -231.163)"/></g></g></svg>