<svg id="Calque_3" data-name="Calque 3" xmlns="http://www.w3.org/2000/svg" viewBox="0 0 194.38 243.5"><defs><style>.cls-1{fill:#ebbfd4;}.cls-2{fill:none;}.cls-2,.cls-3{stroke:#000;stroke-miterlimit:10;}.cls-3{fill:#fff;}</style></defs><ellipse class="cls-1" cx="121.25" cy="138.95" rx="72.44" ry="67"/><path class="cls-2" d="M990,113c38,.45,49.41,15,52,18.57,12.47,17.77,5.47,50.32,2.44,64.42-2.73,12.71-6,20.06-2.28,22.9,6.19,4.74,25.83-7.72,41.54-19a15.22,15.22,0,0,0-10.42.36,13.27,13.27,0,0,0-8,11.86" transform="translate(-937.91 -31.68)"/><path class="cls-3" d="M1030.62,155a35.45,35.45,0,0,0-20.36-10.55c-13.32-1.85-27.19,4.42-35.6,16,2.27,1.43,19,11.62,38.08,5.77A41,41,0,0,0,1030.62,155Z" transform="translate(-937.91 -31.68)"/><ellipse cx="62.91" cy="124.61" rx="12.72" ry="11.76"/><path class="cls-3" d="M1131.6,136a36.08,36.08,0,0,0-21.46-8.46c-13.47-.51-26.52,7.11-33.53,19.43,2.42,1.2,20.24,9.65,38.53,1.92A40,40,0,0,0,1131.6,136Z" transform="translate(-937.91 -31.68)"/><ellipse cx="164.22" cy="108.56" rx="12.72" ry="11.76"/><path d="M1056.05,216.64a39.58,39.58,0,0,0-1.26,9.36,1.22,1.22,0,0,0,.27.95,1.21,1.21,0,0,0,.82.24c2,.06,3.77-1.25,5.31-2.49,9.07-7.33,18.4-15,23.33-25.14a9.68,9.68,0,0,0-4.52,2.54,99.72,99.72,0,0,1-24.58,14.75" transform="translate(-937.91 -31.68)"/><ellipse cx="82.9" cy="161.22" rx="7.28" ry="3.81"/><ellipse cx="94.55" cy="149.6" rx="4.36" ry="1.8"/><ellipse cx="137.18" cy="145.2" rx="3.68" ry="2.2"/><ellipse cx="159.25" cy="148.3" rx="4.97" ry="3.1"/><ellipse cx="171.98" cy="139.22" rx="4.95" ry="2.04"/><path d="M1106.25,240.79c-10.61,7.32-16.3,7.49-19.57,6-4.6-2.06-12.41-11.51-16.42-13.67a3.62,3.62,0,0,0-1.82-.55c-1.62.06-2.48,1.89-2.34,3.38s.88,2.93.8,4.42l-7.9-2.89a19.31,19.31,0,0,0-5.82-1.47,6.42,6.42,0,0,0-5.34,2.09c-2.11,2.77,0,6.53,2,9.33,1.45,2,3,4.06,5.43,5a11.93,11.93,0,0,0,6.61.31c13.8-2.66,22.85,2.43,34.59-3.78A31.41,31.41,0,0,0,1106.25,240.79Z" transform="translate(-937.91 -31.68)"/><path d="M1058.22,265.74a21.12,21.12,0,0,0,18.39.56c-1.17,4.78-7.08,6.92-12.17,8.29-1.84.49-3.91,1-5.61.15-2.78-1.36-2.65-5-2.13-7.9" transform="translate(-937.91 -31.68)"/><path class="cls-2" d="M999.93,32.17c-27.67,6.08-51.27,26.07-60.25,51-1.2,3.32-2.09,7.19-.09,10.17,2.12,3.17,6.65,4.06,10.68,4.21A54.64,54.64,0,0,0,980,90.07c7.33-4.38,13.47-10.5,21.42-13.82.91,5.09-4.65,9.76-3.7,14.84.78,4.12,5.79,6.62,10.3,6.32s8.51-2.67,12.12-5.18a107.91,107.91,0,0,0,16.79-14.4l1.48,7.27c.6,3,1.25,6.06,3.13,8.55,3.34,4.42,10,5.89,15.7,4.71s10.57-4.55,14.86-8.22,8.21-7.74,13-10.84c1.15-.75,2.56-1.46,3.88-1,1,.31,1.66,1.18,2.58,1.64a3.5,3.5,0,0,0,4.1-.83,2.9,2.9,0,0,0-.29-3.87" transform="translate(-937.91 -31.68)"/></svg>